<?xml version="1.0" standalone="no"?>
<!DOCTYPE svg PUBLIC "-//W3C//DTD SVG 20010904//EN"
 "http://www.w3.org/TR/2001/REC-SVG-20010904/DTD/svg10.dtd">
<svg version="1.0" xmlns="http://www.w3.org/2000/svg"
 width="486.000000pt" height="486.000000pt" viewBox="0 0 486.000000 486.000000"
 preserveAspectRatio="xMidYMid meet">
<metadata>
Created by potrace 1.14, written by Peter Selinger 2001-2017
</metadata>
<g transform="translate(0.000000,486.000000) scale(0.100000,-0.100000)"
fill="#000000" stroke="none">
<path d="M2239 4846 c-2 -2 -33 -6 -69 -10 -95 -10 -115 -13 -225 -36 -90 -19
-217 -52 -255 -67 -8 -3 -20 -7 -26 -8 -36 -8 -216 -86 -318 -138 -455 -230
-825 -605 -1056 -1067 -127 -253 -211 -536 -238 -805 -9 -91 -9 -452 0 -535
28 -244 100 -503 199 -718 22 -46 39 -85 39 -87 0 -9 101 -181 143 -245 155
-232 310 -397 571 -607 55 -44 237 -157 332 -205 228 -117 426 -185 681 -234
13 -2 38 -6 55 -9 18 -2 58 -8 88 -12 72 -10 476 -10 562 0 449 53 920 256
1253 539 60 51 74 64 120 108 158 152 289 314 404 500 32 53 144 275 168 335
76 189 141 442 160 627 11 97 10 465 0 552 -84 699 -455 1314 -1031 1708 -314
215 -693 358 -1064 402 -101 12 -483 21 -493 12z"/>
</g>
</svg>
